<?xml version="1.0" encoding="UTF-8" standalone="no"?>
<svg width="64" height="64" viewBox="0 0 64 64" fill="none" xmlns="http://www.w3.org/2000/svg">
  <!-- Main circular background -->
  <circle cx="32" cy="32" r="30" fill="#2196F3" />
  <circle cx="32" cy="32" r="28" fill="#1E88E5" />
  
  <!-- Center hexagon (representing the ARLO brain) -->
  <path d="M32 18L44 25V39L32 46L20 39V25L32 18Z" fill="#FFFFFF" />
  
  <!-- Letter A -->
  <path d="M32 22L38 25.5V34L32 37.5L26 34V25.5L32 22Z" fill="#1E88E5" />
  <path d="M30 28.5L32 27.5L34 28.5V31.5L32 32.5L30 31.5V28.5Z" fill="#FFFFFF" />
  
  <!-- Orbital rings -->
  <circle cx="32" cy="32" r="30" stroke="#FFFFFF" stroke-width="1.5" stroke-opacity="0.3" fill="none" />
  <circle cx="32" cy="32" r="26" stroke="#FFFFFF" stroke-width="1" stroke-opacity="0.2" fill="none" />
  
  <!-- Connecting dots (representing agent network) -->
  <circle cx="14" cy="32" r="3" fill="#FFFFFF" />
  <circle cx="50" cy="32" r="3" fill="#FFFFFF" />
  <circle cx="23" cy="18" r="2.5" fill="#FFFFFF" />
  <circle cx="41" cy="18" r="2.5" fill="#FFFFFF" />
  <circle cx="23" cy="46" r="2.5" fill="#FFFFFF" />
  <circle cx="41" cy="46" r="2.5" fill="#FFFFFF" />
  
  <!-- Connection lines -->
  <line x1="16.5" y1="32" x2="29.5" y2="32" stroke="#FFFFFF" stroke-width="1.5" />
  <line x1="34.5" y1="32" x2="47.5" y2="32" stroke="#FFFFFF" stroke-width="1.5" />
  <line x1="25" y1="19.5" x2="30" y2="26.5" stroke="#FFFFFF" stroke-width="1.5" />
  <line x1="39" y1="19.5" x2="34" y2="26.5" stroke="#FFFFFF" stroke-width="1.5" />
  <line x1="25" y1="44.5" x2="30" y2="37.5" stroke="#FFFFFF" stroke-width="1.5" />
  <line x1="39" y1="44.5" x2="34" y2="37.5" stroke="#FFFFFF" stroke-width="1.5" />
</svg>